<svg width="639" height="639" viewBox="0 0 639 639" fill="none" xmlns="http://www.w3.org/2000/svg">
<path d="M595.889 403.564H386.717V282.52H595.889V403.564ZM387.993 402.288H594.612V283.797H387.993V402.288Z" fill="#E0E0E0"/>
<path d="M552.737 347.063H414.731V351.108H552.737V347.063Z" fill="#F0F0F0"/>
<path d="M562.245 362.148H414.731V366.564H562.245V362.148Z" fill="#F0F0F0"/>
<path d="M562.245 377.413H414.731V381.829H562.245V377.413Z" fill="#F0F0F0"/>
<path d="M462.963 325.149H414.731V335.653H462.963V325.149Z" fill="#F0F0F0"/>
<path d="M595.251 283.159H387.393V302.431H595.251V283.159Z" fill="#E0E0E0"/>
<path d="M579.259 299.546C578.991 299.291 581.671 296.062 585.232 292.335C588.793 288.608 591.92 285.788 592.175 286.03C592.43 286.273 589.763 289.514 586.202 293.254C582.641 296.994 579.514 299.801 579.259 299.546Z" fill="white"/>
<path d="M592.201 299.546C591.945 299.801 588.831 296.994 585.257 293.254C581.684 289.514 579.016 286.285 579.284 286.03C579.552 285.775 582.654 288.583 586.227 292.335C589.801 296.087 592.443 299.291 592.201 299.546Z" fill="white"/>
<path d="M338.499 43.4578L130.641 43.4578V163.238H338.499V43.4578Z" fill="#E6E6E6"/>
<path d="M295.998 107.375L157.992 107.375V111.42L295.998 111.42V107.375Z" fill="#F0F0F0"/>
<path d="M305.506 122.46L157.992 122.46V126.876L305.506 126.876V122.46Z" fill="#F0F0F0"/>
<path d="M305.506 137.725H157.992V142.141H305.506V137.725Z" fill="#F0F0F0"/>
<path d="M206.223 85.4606H157.992V95.9645H206.223V85.4606Z" fill="#F0F0F0"/>
<path d="M338.499 43.4578L130.641 43.4578V62.7298L338.499 62.7298V43.4578Z" fill="#E0E0E0"/>
<path d="M321.805 59.756C321.537 59.5135 324.217 56.2717 327.778 52.545C331.339 48.8182 334.465 45.9976 334.721 46.2528C334.976 46.5081 332.308 49.7371 328.748 53.4639C325.187 57.1907 322.06 59.9858 321.805 59.756Z" fill="white"/>
<path d="M334.721 59.7561C334.466 60.0113 331.351 57.2035 327.778 53.4639C324.204 49.7244 321.537 46.5081 321.805 46.2529C322.073 45.9976 325.174 48.8054 328.748 52.545C332.321 56.2845 334.989 59.5136 334.721 59.7561Z" fill="white"/>
<path d="M259.777 265.967H50.6431L50.6431 144.91H259.777V265.967ZM51.9194 264.691H258.5V146.187H51.9194L51.9194 264.691Z" fill="#E0E0E0"/>
<path d="M216.638 209.465H78.6324V213.511H216.638V209.465Z" fill="#F0F0F0"/>
<path d="M226.146 224.551H78.6324V228.967H226.146V224.551Z" fill="#F0F0F0"/>
<path d="M226.146 239.816H78.6324V244.232H226.146V239.816Z" fill="#F0F0F0"/>
<path d="M126.864 187.551H78.6324V198.055H126.864V187.551Z" fill="#F0F0F0"/>
<path d="M259.139 145.549H51.2815V164.821H259.139V145.549Z" fill="#E0E0E0"/>
<path d="M501.137 293.701H255.705V513.428H501.137V293.701Z" fill="#E6E6E6"/>
<path d="M268.047 224.487H75.786L75.786 424.24H268.047V224.487Z" fill="#F0F0F0"/>
<path d="M268.047 224.487H75.786V246.248H268.047V224.487Z" fill="#E0E0E0"/>
<path d="M91.6634 235.144C91.6284 235.933 91.3625 236.695 90.8986 237.334C90.4347 237.974 89.7933 238.463 89.0539 238.741C88.3146 239.019 87.5099 239.073 86.7397 238.898C85.9695 238.723 85.2677 238.326 84.7213 237.755C84.175 237.185 83.8083 236.466 83.6666 235.689C83.5249 234.912 83.6146 234.11 83.9244 233.384C84.2342 232.657 84.7505 232.038 85.4093 231.602C86.0682 231.166 86.8404 230.933 87.6303 230.933C88.7226 230.959 89.76 231.417 90.5156 232.207C91.2713 232.996 91.684 234.052 91.6634 235.144Z" fill="white"/>
<path d="M108.038 235.144C108.006 235.937 107.741 236.703 107.277 237.346C106.812 237.99 106.169 238.482 105.426 238.763C104.684 239.044 103.876 239.1 103.102 238.924C102.328 238.749 101.623 238.35 101.074 237.777C100.525 237.203 100.157 236.482 100.015 235.701C99.8735 234.92 99.9646 234.115 100.277 233.385C100.589 232.656 101.109 232.035 101.772 231.598C102.435 231.162 103.212 230.931 104.005 230.933C105.098 230.959 106.135 231.417 106.891 232.207C107.646 232.996 108.059 234.052 108.038 235.144Z" fill="white"/>
<path d="M124.413 235.144C124.38 235.937 124.115 236.703 123.651 237.346C123.186 237.99 122.543 238.482 121.801 238.763C121.058 239.044 120.25 239.1 119.476 238.924C118.702 238.749 117.997 238.35 117.448 237.777C116.899 237.203 116.531 236.482 116.389 235.701C116.248 234.92 116.339 234.115 116.651 233.385C116.964 232.656 117.484 232.035 118.147 231.598C118.81 231.162 119.586 230.931 120.38 230.933C121.472 230.959 122.509 231.417 123.265 232.207C124.021 232.996 124.433 234.052 124.413 235.144Z" fill="white"/>
<path d="M568.436 87.1453L323.004 87.1453V331.76H568.436V87.1453Z" fill="#F0F0F0"/>
<path d="M568.436 87.1453L323.004 87.1453V115.798L568.436 115.798V87.1453Z" fill="#E0E0E0"/>
<path d="M343.91 101.185C343.865 102.226 343.515 103.232 342.903 104.076C342.292 104.921 341.446 105.567 340.47 105.935C339.495 106.303 338.433 106.376 337.416 106.145C336.399 105.915 335.472 105.39 334.751 104.638C334.029 103.885 333.545 102.937 333.357 101.912C333.17 100.886 333.288 99.8278 333.696 98.8686C334.105 97.9094 334.787 97.0914 335.656 96.5161C336.526 95.9409 337.545 95.6337 338.588 95.6327C340.029 95.6662 341.398 96.2692 342.395 97.3097C343.393 98.3502 343.937 99.7435 343.91 101.185Z" fill="white"/>
<path d="M363.909 97.4322C364.617 98.2006 365.083 99.1602 365.249 100.191C365.415 101.223 365.274 102.28 364.843 103.232C364.412 104.183 363.711 104.987 362.827 105.543C361.943 106.099 360.914 106.382 359.87 106.358C358.826 106.334 357.812 106.003 356.954 105.406C356.097 104.809 355.434 103.974 355.048 103.003C354.663 102.032 354.571 100.97 354.785 99.9473C354.999 98.9249 355.509 97.988 356.252 97.2535C357.292 96.2637 358.682 95.7267 360.117 95.7601C361.553 95.7936 362.917 96.3949 363.909 97.4322Z" fill="white"/>
<path d="M387.023 101.185C386.978 102.226 386.628 103.232 386.017 104.076C385.405 104.921 384.559 105.567 383.584 105.935C382.608 106.303 381.546 106.376 380.529 106.145C379.512 105.915 378.585 105.39 377.864 104.638C377.142 103.885 376.658 102.937 376.47 101.912C376.283 100.886 376.401 99.8278 376.81 98.8686C377.218 97.9094 377.9 97.0914 378.769 96.5161C379.639 95.9409 380.658 95.6337 381.701 95.6327C383.142 95.6662 384.511 96.2692 385.508 97.3097C386.506 98.3502 387.051 99.7435 387.023 101.185Z" fill="white"/>
<path d="M515.419 578.327C515.419 578.506 426.793 578.659 317.504 578.659C208.215 578.659 119.551 578.506 119.551 578.327C119.551 578.148 208.164 577.995 317.504 577.995C426.844 577.995 515.419 578.161 515.419 578.327Z" fill="#1A1A1A"/>
<path d="M429.065 422.083C409.346 408.312 404.879 382.748 405.658 359.762C405.785 355.933 405.364 351.874 407.189 348.518C409.014 345.161 413.277 342.851 416.71 344.459C419.556 345.799 420.794 349.117 422.39 351.861C424.518 355.516 427.638 358.494 431.388 360.451C433.825 361.727 436.85 362.493 439.262 361.166C442.581 359.341 442.964 354.784 442.938 350.955C442.938 343.834 442.896 336.72 442.81 329.616C442.581 325.801 442.969 321.974 443.959 318.282C445.146 314.658 447.788 311.301 451.4 310.28C455.012 309.259 459.517 311.365 460.334 315.091C460.475 316.67 460.513 318.256 460.449 319.839C460.551 321.435 461.291 323.183 462.784 323.668C464.278 324.153 465.835 323.043 466.983 321.92C470.914 318.091 473.595 313.1 476.083 308.174C478.572 303.247 481.01 298.181 484.584 293.982C488.157 289.783 493.096 286.451 498.623 286.132C504.149 285.813 509.905 289.208 511.284 294.569C512.662 299.929 509.535 305.404 506.178 309.757C501.113 316.217 495.143 321.912 488.451 326.667C487.144 327.381 486.102 328.495 485.477 329.845C484.647 332.398 487.06 334.951 489.574 335.755C492.42 336.699 495.509 336.406 498.508 336.763C501.507 337.12 504.698 338.422 505.834 341.23C507.391 345.135 504.124 349.22 500.92 351.9C494.488 357.26 487.183 361.478 479.325 364.369C476.517 365.39 473.569 366.296 471.297 368.262C469.026 370.227 467.673 373.661 469.038 376.354C470.404 379.047 473.914 379.902 476.862 379.353C479.81 378.804 482.427 377.221 485.234 376.162C490.48 374.184 497.244 374.541 500.55 379.072C501.574 380.633 502.222 382.41 502.444 384.263C502.665 386.117 502.454 387.997 501.826 389.755C500.549 393.253 498.583 396.461 496.045 399.186C487.686 409.174 476.824 416.763 464.571 421.177C452.408 425.389 441.139 426.537 429.052 422.109" fill="#1A1A1A"/>
<path d="M505.668 289.285C505.668 289.285 505.553 289.412 505.298 289.642L504.162 290.65C503.166 291.544 501.699 292.846 499.848 294.569C494.601 299.44 489.729 304.701 485.273 310.305C482.427 313.841 479.478 317.848 476.339 322.2C473.199 326.553 469.957 331.249 466.741 336.24C463.312 341.502 460.172 346.947 457.335 352.551C455.854 355.473 454.552 358.524 453.212 361.638L449.256 371.146C444.04 383.123 439.498 395.382 435.65 407.865C432.551 418.079 430.414 428.561 429.269 439.173C428.527 446.334 428.407 453.547 428.912 460.729C429.116 463.282 429.307 465.235 429.486 466.562C429.562 467.2 429.614 467.711 429.665 468.081V468.604C429.61 468.438 429.571 468.267 429.55 468.094C429.486 467.723 429.409 467.226 429.307 466.588C429.077 465.311 428.835 463.295 428.605 460.742C427.989 453.546 428.032 446.31 428.733 439.122C429.807 428.464 431.897 417.934 434.974 407.674C438.79 395.155 443.319 382.866 448.541 370.865L452.6 361.395C453.94 358.294 455.254 355.218 456.748 352.283C459.605 346.662 462.77 341.204 466.23 335.933C469.498 330.828 472.791 326.208 475.892 321.894C478.993 317.58 481.993 313.547 484.826 310.025C489.327 304.435 494.265 299.211 499.593 294.403C501.482 292.705 502.988 291.429 504.009 290.574L505.196 289.617C505.341 289.49 505.499 289.379 505.668 289.285Z" fill="#1A1A1A"/>
<path d="M456.914 352.257C456.734 351.731 456.61 351.188 456.544 350.636C456.34 349.577 456.11 348.084 455.842 346.144C455.293 342.315 454.731 337.069 454.132 331.262C453.532 325.455 452.855 320.197 452.294 316.406C452 314.517 451.745 312.998 451.566 311.939C451.427 311.397 451.354 310.84 451.349 310.28C451.569 310.791 451.728 311.327 451.821 311.875C452.102 312.922 452.421 314.428 452.779 316.329C453.506 320.158 454.221 325.366 454.821 331.185C455.421 337.005 455.931 342.111 456.327 346.08C456.518 347.867 456.684 349.385 456.812 350.598C456.911 351.145 456.945 351.702 456.914 352.257Z" fill="#1A1A1A"/>
<path d="M506.025 343.093C505.404 343.229 504.772 343.305 504.136 343.323C502.86 343.438 501.048 343.591 498.802 343.846C494.309 344.331 488.132 345.225 481.355 346.501C474.577 347.777 468.49 349.22 464.112 350.33C461.929 350.891 460.168 351.402 459.007 351.747C458.387 351.967 457.745 352.121 457.092 352.206C457.682 351.909 458.297 351.666 458.93 351.479C460.13 351.057 461.866 350.47 464.035 349.845C468.387 348.569 474.475 347.05 481.278 345.748C487.041 344.646 492.855 343.837 498.699 343.323C500.958 343.132 502.784 343.055 504.06 343.03C504.716 342.985 505.374 343.006 506.025 343.093Z" fill="#1A1A1A"/>
<path d="M435.6 406.78C435.464 406.596 435.352 406.394 435.268 406.181L434.425 404.406C433.698 402.862 432.715 400.578 431.541 397.783C429.167 392.167 426.142 384.305 422.926 375.575C419.71 366.845 416.749 358.983 414.502 353.304C413.405 350.547 412.499 348.288 411.822 346.603L411.107 344.778C411.008 344.568 410.94 344.344 410.903 344.114C411.039 344.299 411.151 344.501 411.235 344.714L412.077 346.488C412.792 348.033 413.788 350.317 414.962 353.112C417.336 358.728 420.361 366.59 423.577 375.32C426.793 384.05 429.754 391.912 432 397.591C433.098 400.348 434.004 402.607 434.668 404.292C434.961 405.019 435.204 405.568 435.395 406.117C435.494 406.327 435.563 406.551 435.6 406.78Z" fill="#1A1A1A"/>
<path d="M500.793 385.76C500.588 385.877 500.369 385.967 500.142 386.028L498.253 386.666L491.272 388.925C485.375 390.84 477.232 393.571 468.298 396.583C459.364 399.595 451.183 402.275 445.248 404.062C442.287 404.968 439.875 405.657 438.203 406.117L436.276 406.615C436.052 406.686 435.821 406.733 435.587 406.755C435.791 406.638 436.01 406.548 436.238 406.487L438.127 405.849L445.108 403.59C451.004 401.675 459.147 398.944 468.081 395.932C477.015 392.92 485.184 390.24 491.118 388.453C494.092 387.547 496.492 386.858 498.176 386.398L500.103 385.9C500.328 385.829 500.559 385.782 500.793 385.76Z" fill="#1A1A1A"/>
<path d="M474.194 76.1692L467.621 78.5176L464.8 69.9282C459.619 54.0894 443.103 45.6786 427.928 51.0263C412.753 56.3739 404.674 73.7443 409.856 89.5831L412.677 98.1726L406.078 100.534C403.562 101.51 401.519 103.418 400.373 105.861C399.227 108.305 399.067 111.096 399.926 113.654L418.216 169.543C418.595 170.809 419.226 171.987 420.069 173.005C420.913 174.023 421.953 174.861 423.126 175.469C424.3 176.078 425.585 176.444 426.903 176.546C428.221 176.648 429.546 176.485 430.8 176.065L498.916 151.7C501.465 150.726 503.537 148.801 504.697 146.33C505.856 143.86 506.012 141.036 505.131 138.452L486.829 82.5635C486.44 81.3005 485.8 80.129 484.948 79.1187C484.096 78.1085 483.049 77.2803 481.869 76.6835C480.69 76.0868 479.403 75.7337 478.084 75.6453C476.765 75.5569 475.442 75.7351 474.194 76.1692ZM422.274 85.1033C420.877 80.985 421.128 76.4857 422.974 72.5482C424.82 68.6107 428.119 65.5404 432.178 63.9806C434.183 63.2948 436.305 63.0198 438.418 63.172C440.531 63.3242 442.592 63.9005 444.478 64.8665C446.363 65.8325 448.035 67.1684 449.393 68.7946C450.751 70.4207 451.768 72.3038 452.382 74.3314L455.19 82.9208L425.082 93.6928L422.274 85.1033ZM460.563 134.7L465.234 148.969C465.32 149.255 465.293 149.563 465.157 149.83C465.022 150.096 464.789 150.299 464.507 150.398L457.96 152.734C457.699 152.806 457.421 152.775 457.183 152.646C456.945 152.518 456.766 152.302 456.683 152.045L451.974 137.84C449.377 137.698 446.885 136.767 444.832 135.17C442.78 133.574 441.263 131.388 440.487 128.906C439.377 125.624 439.58 122.041 441.052 118.905C442.525 115.77 445.153 113.325 448.387 112.084C449.984 111.539 451.674 111.32 453.358 111.442C455.041 111.563 456.682 112.022 458.184 112.792C459.686 113.561 461.017 114.625 462.099 115.92C463.181 117.215 463.991 118.714 464.481 120.329C465.303 122.85 465.37 125.557 464.677 128.116C463.983 130.675 462.558 132.977 460.576 134.738L460.563 134.7Z" fill="#1A1A1A"/>
<path d="M467.328 78.3646C467.328 78.5432 455.139 83.1251 439.977 88.5749C424.814 94.0247 412.447 98.4024 412.383 98.2747C412.319 98.1471 424.572 93.5269 439.747 88.0644C454.922 82.6018 467.264 78.1986 467.328 78.3646Z" fill="#1A1A1A"/>
<path d="M481.801 80.7129C481.857 80.8236 481.904 80.9389 481.941 81.0575C482.043 81.3127 482.158 81.6446 482.311 82.053C482.643 82.9847 483.103 84.2737 483.677 85.8818L488.578 100.151C490.62 106.2 493.058 113.373 495.763 121.337C497.04 125.332 498.546 129.493 499.95 133.87C500.701 136.126 501.026 138.503 500.907 140.877C500.799 142.112 500.447 143.314 499.873 144.413C499.26 145.508 498.441 146.474 497.461 147.259C495.489 148.698 493.3 149.814 490.977 150.564L484.404 152.926L471.961 157.38L450.889 164.884L436.658 169.888L432.829 171.164L431.808 171.496C431.699 171.544 431.583 171.574 431.464 171.585C431.464 171.585 431.566 171.585 431.783 171.432L432.778 171.036L436.607 169.594L450.761 164.387L471.795 156.729L484.213 152.236L490.786 149.862C493.043 149.143 495.168 148.061 497.078 146.659C497.99 145.931 498.752 145.034 499.324 144.017C499.865 143.001 500.191 141.884 500.282 140.737C500.399 138.449 500.087 136.159 499.363 133.985C497.984 129.646 496.529 125.447 495.215 121.452C492.56 113.475 490.109 106.277 488.169 100.227C486.23 94.1778 484.596 89.3151 483.473 85.8946C482.937 84.2227 482.528 82.9209 482.196 81.9764L481.89 80.9554C481.852 80.878 481.822 80.7967 481.801 80.7129Z" fill="#1A1A1A"/>
<path d="M445.86 63.1128C445.86 63.1128 445.184 62.7809 443.933 62.2704C442.15 61.5854 440.264 61.2057 438.355 61.1473C435.526 61.0502 432.71 61.582 430.111 62.7044C426.95 64.1019 424.247 66.3623 422.312 69.2262C420.365 72.082 419.32 75.4567 419.313 78.9133C419.34 81.7463 419.769 84.5611 420.589 87.273C421.253 89.5959 421.942 91.4465 422.402 92.7356C422.673 93.3903 422.895 94.0644 423.065 94.7521C422.703 94.1399 422.399 93.4946 422.159 92.8249C421.636 91.5486 420.883 89.7363 420.143 87.4006C419.234 84.6603 418.739 81.7997 418.675 78.9133C418.641 75.3262 419.71 71.8152 421.738 68.8561C423.74 65.8876 426.553 63.5572 429.843 62.1428C432.523 61.0143 435.427 60.5165 438.33 60.6878C440.28 60.7872 442.196 61.2413 443.984 62.0279C444.462 62.2484 444.923 62.5044 445.362 62.7937C445.544 62.8735 445.712 62.9811 445.86 63.1128Z" fill="#1A1A1A"/>
<path d="M446.448 113.054C446.651 112.931 446.865 112.824 447.086 112.735C447.725 112.447 448.386 112.212 449.064 112.033C450.14 111.716 451.249 111.527 452.37 111.472C453.893 111.39 455.418 111.62 456.849 112.148C460.117 113.297 463.116 116.628 464.596 121.082C465.306 123.472 465.306 126.018 464.596 128.408C463.809 131.002 462.398 133.364 460.487 135.287L460.563 134.943C462.261 139.601 464.111 144.655 466.026 149.926L466.141 150.245L465.822 150.36L462.899 151.33L456.517 153.462L456.198 153.564L456.096 153.245C454.348 147.961 452.433 143.034 450.991 138.197L451.272 138.414C448.777 138.207 446.398 137.27 444.431 135.721C442.651 134.351 441.192 132.608 440.155 130.616C439.22 128.849 438.754 126.871 438.803 124.873C438.862 122.83 439.372 120.825 440.296 119.003C441.221 117.18 442.537 115.585 444.15 114.33C444.814 113.791 445.56 113.361 446.358 113.054C445.637 113.482 444.939 113.946 444.265 114.445C442.493 115.945 441.135 117.874 440.321 120.048C439.623 121.688 439.296 123.462 439.365 125.242C439.433 127.023 439.895 128.767 440.717 130.348C441.737 132.265 443.161 133.937 444.89 135.249C446.767 136.721 449.035 137.609 451.412 137.801H451.629L451.693 137.993C453.097 142.741 455.024 147.706 456.798 153.015L456.377 152.811L462.759 150.679L465.669 149.697L465.464 150.13C463.563 144.859 461.725 139.792 460.04 135.134V134.943L460.193 134.789C462.049 132.946 463.432 130.683 464.226 128.191C464.903 125.904 464.903 123.471 464.226 121.184C462.835 116.896 459.964 113.641 456.849 112.493C455.471 111.961 453.999 111.714 452.523 111.765C451.42 111.79 450.324 111.94 449.255 112.212C447.354 112.684 446.46 113.118 446.448 113.054Z" fill="#1A1A1A"/>
<path d="M406.997 481.571L279.508 480.984C272.146 480.944 265.101 477.983 259.92 472.752C254.739 467.52 251.846 460.447 251.876 453.084L253.229 133.488C253.244 129.84 253.978 126.231 255.389 122.867C256.799 119.503 258.859 116.451 261.45 113.883C264.041 111.316 267.113 109.284 270.489 107.905C273.866 106.525 277.482 105.825 281.129 105.843L408.605 106.43C415.968 106.467 423.014 109.425 428.198 114.654C433.381 119.883 436.277 126.955 436.25 134.317L434.897 453.901C434.882 457.55 434.148 461.16 432.738 464.525C431.328 467.891 429.269 470.945 426.678 473.515C424.087 476.084 421.016 478.118 417.639 479.5C414.262 480.883 410.646 481.586 406.997 481.571Z" fill="#455A64"/>
<path d="M408.413 117.419L383.704 117.419C382.898 117.434 382.103 117.608 381.364 117.93C380.625 118.252 379.956 118.717 379.397 119.298C378.837 119.879 378.398 120.564 378.103 121.315C377.809 122.065 377.665 122.867 377.68 123.673V128.153C377.696 128.958 377.552 129.759 377.257 130.509C376.962 131.259 376.523 131.943 375.963 132.523C375.403 133.103 374.735 133.566 373.996 133.887C373.257 134.208 372.462 134.38 371.656 134.394L323.489 134.177C321.859 134.133 320.314 133.445 319.191 132.263C318.069 131.081 317.462 129.501 317.503 127.872V123.392C317.544 121.765 316.939 120.187 315.819 119.006C314.7 117.824 313.157 117.134 311.53 117.087H302.838L281.205 116.985C276.06 116.954 271.112 118.964 267.445 122.574C263.778 126.183 261.69 131.099 261.64 136.244L260.363 448.196C260.352 450.749 260.843 453.279 261.809 455.642C262.775 458.004 264.197 460.154 265.993 461.967C267.79 463.78 269.926 465.222 272.28 466.21C274.634 467.197 277.159 467.712 279.712 467.723L406.933 468.31C409.487 468.322 412.019 467.831 414.383 466.864C416.748 465.897 418.898 464.475 420.713 462.677C422.527 460.879 423.97 458.741 424.958 456.386C425.947 454.03 426.461 451.503 426.473 448.949L427.749 136.997C427.78 131.837 425.76 126.877 422.134 123.205C418.509 119.534 413.573 117.453 408.413 117.419Z" fill="white"/>
<path d="M391.299 426.691L296.7 426.282C295.717 426.282 294.926 425.21 294.938 423.908L295.04 399.161C295.04 397.885 295.845 396.787 296.827 396.787L391.426 397.221C391.971 397.315 392.458 397.616 392.786 398.061C393.114 398.505 393.258 399.059 393.188 399.608L393.098 424.329C393.098 425.644 392.281 426.703 391.299 426.691Z" fill="#1A1A1A"/>
<path d="M327.42 408.479C327.376 408.106 327.197 407.816 326.882 407.609C326.568 407.403 326.182 407.3 325.725 407.3C325.391 407.3 325.098 407.354 324.848 407.462C324.6 407.57 324.406 407.719 324.266 407.908C324.128 408.097 324.059 408.312 324.059 408.553C324.059 408.754 324.107 408.927 324.203 409.072C324.301 409.215 324.426 409.334 324.579 409.43C324.731 409.523 324.891 409.601 325.058 409.662C325.225 409.721 325.379 409.769 325.519 409.806L326.285 410.012C326.482 410.064 326.7 410.135 326.941 410.226C327.184 410.317 327.417 410.441 327.638 410.598C327.861 410.753 328.045 410.952 328.19 411.195C328.335 411.438 328.408 411.737 328.408 412.091C328.408 412.499 328.301 412.867 328.087 413.196C327.876 413.526 327.566 413.787 327.159 413.981C326.753 414.175 326.261 414.272 325.681 414.272C325.14 414.272 324.672 414.185 324.277 414.011C323.884 413.836 323.574 413.593 323.348 413.281C323.124 412.969 322.998 412.607 322.968 412.194H323.912C323.936 412.479 324.032 412.715 324.199 412.901C324.369 413.086 324.582 413.223 324.84 413.314C325.101 413.403 325.381 413.447 325.681 413.447C326.03 413.447 326.343 413.39 326.62 413.277C326.898 413.162 327.118 413.002 327.28 412.798C327.442 412.592 327.523 412.351 327.523 412.076C327.523 411.825 327.453 411.621 327.313 411.464C327.173 411.307 326.989 411.179 326.761 411.081C326.532 410.983 326.285 410.897 326.02 410.823L325.091 410.558C324.501 410.388 324.035 410.146 323.691 409.832C323.347 409.517 323.175 409.106 323.175 408.597C323.175 408.174 323.289 407.806 323.517 407.491C323.748 407.174 324.058 406.929 324.446 406.754C324.837 406.577 325.273 406.489 325.754 406.489C326.241 406.489 326.673 406.576 327.052 406.751C327.43 406.923 327.73 407.159 327.951 407.458C328.174 407.758 328.292 408.098 328.305 408.479H327.42ZM330.825 406.592V414.14H329.911V406.592H330.825ZM338.642 406.592V414.14H337.758L333.645 408.214H333.571V414.14H332.657V406.592H333.542L337.669 412.533H337.743V406.592H338.642ZM345.63 408.951C345.549 408.703 345.442 408.48 345.31 408.284C345.18 408.085 345.024 407.915 344.842 407.775C344.662 407.635 344.458 407.528 344.23 407.455C344.001 407.381 343.751 407.344 343.478 407.344C343.031 407.344 342.624 407.459 342.258 407.69C341.892 407.921 341.601 408.262 341.385 408.711C341.169 409.161 341.061 409.712 341.061 410.366C341.061 411.02 341.17 411.571 341.389 412.021C341.607 412.47 341.903 412.811 342.277 413.042C342.65 413.272 343.07 413.388 343.537 413.388C343.97 413.388 344.35 413.296 344.68 413.112C345.011 412.925 345.269 412.662 345.453 412.323C345.64 411.981 345.734 411.58 345.734 411.118L346.014 411.177H343.743V410.366H346.618V411.177C346.618 411.798 346.485 412.339 346.22 412.798C345.957 413.258 345.594 413.614 345.129 413.867C344.667 414.118 344.137 414.243 343.537 414.243C342.869 414.243 342.282 414.086 341.776 413.771C341.272 413.457 340.879 413.01 340.596 412.43C340.316 411.85 340.176 411.162 340.176 410.366C340.176 409.769 340.256 409.232 340.416 408.755C340.578 408.276 340.806 407.869 341.101 407.532C341.396 407.195 341.745 406.937 342.148 406.758C342.551 406.579 342.994 406.489 343.478 406.489C343.876 406.489 344.247 406.549 344.591 406.67C344.938 406.788 345.246 406.956 345.516 407.174C345.789 407.391 346.016 407.65 346.198 407.952C346.38 408.252 346.505 408.585 346.574 408.951H345.63ZM356.055 406.592H356.969V411.59C356.969 412.105 356.848 412.566 356.604 412.972C356.364 413.374 356.023 413.693 355.584 413.926C355.144 414.157 354.628 414.272 354.036 414.272C353.444 414.272 352.928 414.157 352.488 413.926C352.048 413.693 351.707 413.374 351.463 412.972C351.223 412.566 351.102 412.105 351.102 411.59V406.592H352.016V411.516C352.016 411.884 352.097 412.212 352.259 412.5C352.422 412.785 352.652 413.01 352.952 413.174C353.254 413.336 353.616 413.417 354.036 413.417C354.456 413.417 354.817 413.336 355.119 413.174C355.421 413.01 355.652 412.785 355.812 412.5C355.974 412.212 356.055 411.884 356.055 411.516V406.592ZM358.794 414.14V406.592H361.345C361.937 406.592 362.421 406.699 362.797 406.913C363.175 407.124 363.455 407.41 363.637 407.772C363.819 408.133 363.91 408.536 363.91 408.98C363.91 409.425 363.819 409.829 363.637 410.193C363.458 410.556 363.18 410.846 362.804 411.063C362.428 411.276 361.947 411.383 361.359 411.383H359.531V410.572H361.33C361.735 410.572 362.061 410.502 362.307 410.362C362.552 410.222 362.73 410.033 362.841 409.795C362.954 409.554 363.01 409.282 363.01 408.98C363.01 408.678 362.954 408.408 362.841 408.17C362.73 407.931 362.551 407.744 362.303 407.609C362.055 407.472 361.725 407.403 361.315 407.403H359.708V414.14H358.794Z" fill="#E8E8E3"/>
<path d="M315.568 209.121L282.743 208.972L282.715 214.996L315.541 215.145L315.568 209.121Z" fill="#1A1A1A"/>
<path opacity="0.1" d="M315.568 209.121L282.743 208.972L282.715 214.996L315.541 215.145L315.568 209.121Z" fill="#1A1A1A"/>
<path d="M411.796 246.108C412.054 246.082 412.307 246.022 412.549 245.929C412.902 245.791 413.209 245.556 413.435 245.251C413.661 244.946 413.796 244.584 413.825 244.206C413.825 242.177 413.825 239.216 413.825 235.412C413.825 233.511 413.825 231.379 413.825 229.031C413.825 228.457 413.825 227.857 413.825 227.257C413.908 226.675 413.782 226.082 413.468 225.585C413.292 225.347 413.063 225.152 412.8 225.017C412.536 224.882 412.245 224.81 411.949 224.806H409.958H391.515L284.766 224.411C284.493 224.406 284.223 224.467 283.978 224.59C283.734 224.712 283.523 224.891 283.362 225.113C283.054 225.612 282.936 226.206 283.03 226.785C283.03 228.061 283.03 229.337 283.03 230.614C283.03 233.166 283.03 235.719 283.03 238.271C283.03 239.548 283.03 240.824 283.03 242.1C282.978 242.695 282.978 243.293 283.03 243.887C283.098 244.142 283.222 244.378 283.395 244.577C283.567 244.776 283.783 244.933 284.026 245.036C284.277 245.136 284.547 245.184 284.817 245.176H291.314L319.66 245.329L367.649 245.623L400.003 245.878L408.796 245.98H411.081C411.604 245.98 411.86 245.98 411.86 245.98H411.081H408.796H400.003H367.649L319.66 245.827L291.314 245.712H284.817C284.46 245.727 284.103 245.666 283.771 245.533C283.435 245.39 283.136 245.172 282.897 244.895C282.658 244.619 282.485 244.291 282.392 243.938C282.318 243.603 282.293 243.259 282.316 242.917V241.973C282.316 240.696 282.316 239.42 282.316 238.144C282.316 235.591 282.316 233.038 282.316 230.486C282.316 229.21 282.316 227.933 282.316 226.657C282.291 226.317 282.291 225.976 282.316 225.636C282.364 225.261 282.509 224.904 282.737 224.602C282.957 224.294 283.248 224.044 283.586 223.873C283.924 223.702 284.298 223.615 284.677 223.619L391.426 224.207L409.869 224.334H411.86C412.21 224.334 412.556 224.419 412.867 224.581C413.178 224.744 413.445 224.978 413.646 225.266C414.006 225.821 414.151 226.488 414.055 227.142C414.055 227.742 414.055 228.342 414.055 228.916C414.055 231.239 414.055 233.37 414.055 235.298C414.055 239.126 413.965 242.062 413.94 244.104C413.909 244.497 413.766 244.872 413.529 245.186C413.291 245.501 412.969 245.741 412.6 245.878C412.358 246.028 412.08 246.107 411.796 246.108Z" fill="#E0E0E0"/>
<path d="M352.639 230.818H292.603V236.446H352.639V230.818Z" fill="#1A1A1A"/>
<path opacity="0.2" d="M352.639 230.818H292.603V236.446H352.639V230.818Z" fill="white"/>
<path d="M315.344 264.077L282.518 263.928L282.491 269.952L315.317 270.101L315.344 264.077Z" fill="#1A1A1A"/>
<path opacity="0.1" d="M315.344 264.077L282.518 263.928L282.491 269.952L315.317 270.101L315.344 264.077Z" fill="#1A1A1A"/>
<path d="M410.966 301.065C411.224 301.033 411.48 300.986 411.732 300.925C412.088 300.811 412.416 300.623 412.694 300.372C412.971 300.121 413.192 299.813 413.34 299.47C413.541 298.954 413.62 298.399 413.57 297.849C413.57 297.236 413.57 296.572 413.57 295.832C413.57 294.352 413.57 292.667 413.57 290.727V282.622C413.631 282.036 413.501 281.445 413.2 280.938C412.885 280.418 412.39 280.031 411.808 279.853C411.173 279.74 410.525 279.705 409.881 279.751H391.515L285.136 279.355C284.564 279.357 284.012 279.566 283.582 279.944C283.153 280.322 282.875 280.843 282.801 281.41C282.801 282.623 282.801 283.963 282.801 285.239C282.801 287.791 282.801 290.344 282.801 292.897C282.801 294.173 282.801 295.449 282.801 296.726C282.753 297.322 282.779 297.922 282.877 298.512C283.037 299.03 283.365 299.479 283.809 299.789C284.28 300.088 284.834 300.231 285.392 300.197H287.166H290.854L319.098 300.337L366.921 300.631L399.16 300.886L407.928 300.988H410.213H410.979H410.213H407.928H399.16H366.921L319.073 300.937L290.829 300.835H285.277C284.586 300.876 283.901 300.693 283.324 300.312C282.743 299.91 282.319 299.319 282.124 298.64C282.01 297.991 281.976 297.331 282.022 296.674C282.022 295.398 282.022 294.122 282.022 292.846C282.022 290.293 282.022 287.74 282.022 285.188C282.022 283.912 282.022 282.635 282.022 281.359C282.115 280.629 282.471 279.958 283.023 279.472C283.575 278.986 284.286 278.717 285.021 278.717L391.401 279.304L409.766 279.445C410.45 279.403 411.137 279.45 411.808 279.585C412.472 279.802 413.031 280.256 413.378 280.861C413.708 281.423 413.851 282.076 413.787 282.725C413.787 283.324 413.787 283.912 413.787 284.499C413.787 286.809 413.787 288.927 413.787 290.88C413.787 292.833 413.787 294.479 413.787 295.985C413.787 296.713 413.787 297.389 413.787 298.015C413.833 298.585 413.741 299.159 413.519 299.687C413.353 300.039 413.113 300.351 412.816 300.602C412.519 300.853 412.171 301.037 411.796 301.142C411.517 301.165 411.236 301.139 410.966 301.065Z" fill="#E0E0E0"/>
<path d="M315.097 321.419L282.271 321.27L282.244 327.294L315.07 327.443L315.097 321.419Z" fill="#1A1A1A"/>
<path opacity="0.1" d="M315.097 321.419L282.271 321.27L282.244 327.294L315.07 327.443L315.097 321.419Z" fill="#1A1A1A"/>
<path d="M410.711 358.383C410.969 358.353 411.225 358.306 411.477 358.243C411.832 358.13 412.159 357.943 412.436 357.695C412.713 357.446 412.934 357.141 413.085 356.801C413.285 356.285 413.364 355.731 413.315 355.18C413.315 354.555 413.315 353.904 413.315 353.151C413.315 351.683 413.315 349.985 413.315 348.045V339.941C413.376 339.354 413.246 338.763 412.944 338.256C412.622 337.746 412.129 337.366 411.553 337.184C410.918 337.066 410.271 337.028 409.626 337.069H391.26L284.881 336.674C284.309 336.675 283.757 336.884 283.327 337.262C282.897 337.64 282.62 338.161 282.546 338.729C282.546 340.005 282.546 341.281 282.546 342.557C282.546 345.11 282.546 347.663 282.546 350.215C282.546 351.491 282.546 352.768 282.546 354.044C282.498 354.636 282.524 355.232 282.622 355.818C282.775 356.339 283.104 356.79 283.554 357.094C284.022 357.4 284.578 357.544 285.136 357.503H290.688L318.933 357.656L366.755 357.949L398.995 358.205L407.763 358.307H410.047C410.558 358.307 410.813 358.307 410.813 358.307C410.813 358.307 410.558 358.307 410.047 358.307H407.763H398.995H366.755L318.933 358.166L290.688 358.052H285.136C284.445 358.098 283.759 357.914 283.184 357.528C282.603 357.126 282.179 356.535 281.984 355.856C281.87 355.208 281.835 354.548 281.882 353.891C281.882 352.615 281.882 351.338 281.882 350.062C281.882 347.509 281.882 344.957 281.882 342.404C281.882 341.128 281.882 339.852 281.882 338.512C281.972 337.783 282.325 337.112 282.875 336.626C283.425 336.139 284.134 335.87 284.868 335.87L391.247 336.457L409.613 336.597C410.297 336.555 410.984 336.602 411.655 336.737C412.319 336.954 412.878 337.409 413.225 338.014C413.555 338.576 413.698 339.228 413.634 339.877C413.634 340.477 413.634 341.077 413.634 341.651C413.634 343.961 413.634 346.08 413.634 348.033C413.634 349.985 413.634 351.632 413.634 353.138C413.634 353.865 413.634 354.542 413.634 355.167C413.683 355.738 413.591 356.312 413.366 356.839C413.2 357.191 412.96 357.504 412.663 357.755C412.366 358.006 412.018 358.19 411.643 358.294C411.343 358.397 411.024 358.427 410.711 358.383Z" fill="#E0E0E0"/>
<path d="M351.358 287.366L291.322 287.094L291.296 292.722L351.333 292.995L351.358 287.366Z" fill="#1A1A1A"/>
<path opacity="0.2" d="M351.358 287.366L291.322 287.094L291.296 292.722L351.333 292.995L351.358 287.366Z" fill="white"/>
<path d="M296.75 347.969C296.713 348.482 296.525 348.973 296.211 349.381C295.897 349.789 295.47 350.095 294.983 350.263C294.496 350.43 293.971 350.451 293.473 350.322C292.974 350.194 292.524 349.922 292.179 349.541C291.833 349.159 291.608 348.684 291.53 348.175C291.451 347.667 291.524 347.146 291.739 346.678C291.954 346.211 292.302 345.816 292.739 345.544C293.176 345.272 293.683 345.135 294.198 345.148C294.909 345.188 295.576 345.506 296.054 346.034C296.531 346.562 296.782 347.257 296.75 347.969Z" fill="#1A1A1A"/>
<path d="M304.881 348.007C304.906 348.367 304.857 348.728 304.736 349.068C304.616 349.408 304.427 349.72 304.181 349.983C303.935 350.247 303.637 350.458 303.306 350.601C302.975 350.745 302.619 350.819 302.258 350.819C301.897 350.819 301.54 350.745 301.21 350.601C300.879 350.458 300.581 350.247 300.335 349.983C300.089 349.72 299.9 349.408 299.78 349.068C299.659 348.728 299.61 348.367 299.635 348.007C299.61 347.647 299.659 347.286 299.78 346.946C299.9 346.606 300.089 346.295 300.335 346.031C300.581 345.767 300.879 345.557 301.21 345.413C301.54 345.269 301.897 345.195 302.258 345.195C302.619 345.195 302.975 345.269 303.306 345.413C303.637 345.557 303.935 345.767 304.181 346.031C304.427 346.295 304.616 346.606 304.736 346.946C304.857 347.286 304.906 347.647 304.881 348.007Z" fill="#1A1A1A"/>
<path d="M313.024 348.045C312.986 348.559 312.798 349.05 312.484 349.458C312.17 349.865 311.743 350.172 311.256 350.339C310.77 350.507 310.244 350.527 309.746 350.399C309.247 350.271 308.797 349.999 308.452 349.617C308.107 349.235 307.881 348.761 307.803 348.252C307.725 347.743 307.798 347.223 308.013 346.755C308.228 346.287 308.575 345.893 309.012 345.621C309.449 345.349 309.956 345.211 310.471 345.225C311.181 345.268 311.846 345.587 312.323 346.114C312.8 346.641 313.052 347.335 313.024 348.045Z" fill="#1A1A1A"/>
<path d="M321.154 348.084C321.116 348.597 320.928 349.088 320.614 349.496C320.3 349.904 319.873 350.21 319.386 350.378C318.899 350.545 318.374 350.566 317.876 350.437C317.377 350.309 316.927 350.037 316.582 349.656C316.237 349.274 316.011 348.799 315.933 348.29C315.855 347.782 315.928 347.261 316.142 346.793C316.357 346.326 316.705 345.931 317.142 345.659C317.579 345.387 318.086 345.249 318.601 345.263C319.311 345.306 319.976 345.625 320.453 346.153C320.93 346.68 321.182 347.373 321.154 348.084Z" fill="#1A1A1A"/>
<path d="M329.284 348.109C329.248 348.623 329.063 349.116 328.75 349.525C328.437 349.935 328.011 350.243 327.524 350.413C327.037 350.582 326.512 350.605 326.012 350.478C325.513 350.35 325.062 350.079 324.715 349.698C324.368 349.317 324.142 348.842 324.062 348.333C323.983 347.823 324.056 347.302 324.271 346.834C324.485 346.365 324.833 345.97 325.271 345.698C325.708 345.425 326.216 345.287 326.731 345.301C327.439 345.344 328.101 345.662 328.578 346.186C329.055 346.711 329.308 347.401 329.284 348.109Z" fill="#1A1A1A"/>
<path d="M337.426 348.147C337.391 348.659 337.208 349.149 336.898 349.557C336.588 349.966 336.166 350.275 335.682 350.446C335.199 350.618 334.677 350.644 334.179 350.523C333.681 350.401 333.229 350.136 332.879 349.761C332.53 349.386 332.298 348.917 332.211 348.412C332.125 347.906 332.188 347.387 332.393 346.917C332.599 346.447 332.937 346.047 333.366 345.767C333.795 345.487 334.297 345.338 334.81 345.34C335.529 345.366 336.208 345.677 336.698 346.203C337.188 346.729 337.45 347.428 337.426 348.147Z" fill="#1A1A1A"/>
<path d="M345.556 348.186C345.581 348.546 345.532 348.907 345.412 349.247C345.291 349.587 345.102 349.898 344.856 350.162C344.61 350.426 344.312 350.636 343.982 350.78C343.651 350.924 343.294 350.998 342.933 350.998C342.573 350.998 342.216 350.924 341.885 350.78C341.554 350.636 341.257 350.426 341.011 350.162C340.765 349.898 340.576 349.587 340.455 349.247C340.335 348.907 340.285 348.546 340.311 348.186C340.285 347.826 340.335 347.465 340.455 347.125C340.576 346.785 340.765 346.473 341.011 346.209C341.257 345.946 341.554 345.735 341.885 345.592C342.216 345.448 342.573 345.374 342.933 345.374C343.294 345.374 343.651 345.448 343.982 345.592C344.312 345.735 344.61 345.946 344.856 346.209C345.102 346.473 345.291 346.785 345.412 347.125C345.532 347.465 345.581 347.826 345.556 348.186Z" fill="#1A1A1A"/>
<path d="M353.686 348.224C353.651 348.736 353.468 349.226 353.158 349.634C352.848 350.043 352.426 350.352 351.943 350.523C351.459 350.695 350.937 350.721 350.439 350.599C349.941 350.478 349.489 350.213 349.14 349.838C348.79 349.463 348.558 348.994 348.472 348.488C348.385 347.983 348.449 347.463 348.654 346.994C348.859 346.524 349.197 346.124 349.626 345.844C350.055 345.564 350.557 345.415 351.07 345.416C351.789 345.443 352.468 345.753 352.958 346.28C353.449 346.806 353.71 347.505 353.686 348.224Z" fill="#1A1A1A"/>
<path d="M361.816 348.262C361.781 348.776 361.595 349.269 361.283 349.678C360.97 350.088 360.544 350.397 360.057 350.566C359.57 350.735 359.044 350.758 358.545 350.631C358.045 350.504 357.594 350.233 357.248 349.851C356.901 349.47 356.674 348.995 356.595 348.486C356.516 347.977 356.588 347.455 356.803 346.987C357.018 346.519 357.366 346.123 357.803 345.851C358.241 345.579 358.748 345.441 359.264 345.454C359.971 345.497 360.634 345.815 361.111 346.339C361.588 346.864 361.841 347.554 361.816 348.262Z" fill="#1A1A1A"/>
<g opacity="0.2">
<path d="M296.75 347.969C296.713 348.482 296.525 348.973 296.211 349.381C295.897 349.789 295.47 350.095 294.983 350.263C294.496 350.43 293.971 350.451 293.473 350.322C292.974 350.194 292.524 349.922 292.179 349.541C291.833 349.159 291.608 348.684 291.53 348.175C291.451 347.667 291.524 347.146 291.739 346.678C291.954 346.211 292.302 345.816 292.739 345.544C293.176 345.272 293.683 345.135 294.198 345.148C294.909 345.188 295.576 345.506 296.054 346.034C296.531 346.562 296.782 347.257 296.75 347.969Z" fill="white"/>
<path d="M304.88 348.007C304.906 348.367 304.856 348.728 304.736 349.068C304.616 349.408 304.426 349.72 304.18 349.983C303.934 350.247 303.637 350.457 303.306 350.601C302.975 350.745 302.618 350.819 302.258 350.819C301.897 350.819 301.54 350.745 301.209 350.601C300.879 350.457 300.581 350.247 300.335 349.983C300.089 349.72 299.9 349.408 299.779 349.068C299.659 348.728 299.61 348.367 299.635 348.007C299.61 347.647 299.659 347.286 299.779 346.946C299.9 346.606 300.089 346.295 300.335 346.031C300.581 345.767 300.879 345.557 301.209 345.413C301.54 345.269 301.897 345.195 302.258 345.195C302.618 345.195 302.975 345.269 303.306 345.413C303.637 345.557 303.934 345.767 304.18 346.031C304.426 346.295 304.616 346.606 304.736 346.946C304.856 347.286 304.906 347.647 304.88 348.007Z" fill="white"/>
<path d="M313.023 348.045C312.986 348.559 312.798 349.05 312.484 349.458C312.17 349.865 311.743 350.172 311.256 350.339C310.769 350.507 310.244 350.527 309.746 350.399C309.247 350.271 308.797 349.999 308.452 349.617C308.107 349.235 307.881 348.761 307.803 348.252C307.725 347.743 307.797 347.223 308.012 346.755C308.227 346.287 308.575 345.893 309.012 345.621C309.449 345.349 309.956 345.211 310.471 345.225C311.181 345.268 311.846 345.587 312.323 346.114C312.8 346.641 313.051 347.335 313.023 348.045Z" fill="white"/>
<path d="M321.153 348.084C321.116 348.597 320.928 349.088 320.614 349.496C320.3 349.904 319.873 350.21 319.386 350.378C318.899 350.545 318.374 350.566 317.876 350.437C317.377 350.309 316.927 350.037 316.582 349.656C316.236 349.274 316.011 348.799 315.933 348.29C315.854 347.782 315.927 347.261 316.142 346.793C316.357 346.326 316.705 345.931 317.142 345.659C317.579 345.387 318.086 345.249 318.601 345.263C319.311 345.306 319.975 345.625 320.453 346.153C320.93 346.68 321.181 347.373 321.153 348.084Z" fill="white"/>
<path d="M329.283 348.109C329.248 348.623 329.063 349.116 328.75 349.525C328.437 349.935 328.011 350.243 327.524 350.413C327.037 350.582 326.512 350.605 326.012 350.478C325.513 350.35 325.062 350.079 324.715 349.698C324.368 349.317 324.141 348.842 324.062 348.333C323.983 347.823 324.056 347.302 324.27 346.834C324.485 346.365 324.833 345.97 325.27 345.698C325.708 345.425 326.216 345.287 326.731 345.301C327.438 345.344 328.101 345.662 328.578 346.186C329.055 346.711 329.308 347.401 329.283 348.109Z" fill="white"/>
<path d="M337.426 348.147C337.391 348.659 337.208 349.149 336.898 349.557C336.588 349.966 336.165 350.275 335.682 350.446C335.199 350.618 334.676 350.644 334.178 350.523C333.68 350.401 333.229 350.136 332.879 349.761C332.53 349.386 332.298 348.917 332.211 348.412C332.125 347.906 332.188 347.387 332.393 346.917C332.598 346.447 332.936 346.047 333.366 345.767C333.795 345.487 334.297 345.338 334.81 345.34C335.528 345.366 336.207 345.677 336.698 346.203C337.188 346.729 337.45 347.428 337.426 348.147Z" fill="white"/>
<path d="M345.556 348.186C345.581 348.546 345.532 348.907 345.412 349.247C345.291 349.587 345.102 349.898 344.856 350.162C344.61 350.426 344.312 350.636 343.982 350.78C343.651 350.924 343.294 350.998 342.933 350.998C342.573 350.998 342.216 350.924 341.885 350.78C341.554 350.636 341.257 350.426 341.01 350.162C340.764 349.898 340.575 349.587 340.455 349.247C340.335 348.907 340.285 348.546 340.31 348.186C340.285 347.826 340.335 347.465 340.455 347.125C340.575 346.785 340.764 346.473 341.01 346.209C341.257 345.946 341.554 345.735 341.885 345.592C342.216 345.448 342.573 345.374 342.933 345.374C343.294 345.374 343.651 345.448 343.982 345.592C344.312 345.735 344.61 345.946 344.856 346.209C345.102 346.473 345.291 346.785 345.412 347.125C345.532 347.465 345.581 347.826 345.556 348.186Z" fill="white"/>
<path d="M353.686 348.224C353.651 348.736 353.468 349.226 353.158 349.634C352.848 350.043 352.426 350.352 351.943 350.523C351.459 350.695 350.937 350.721 350.439 350.599C349.941 350.478 349.489 350.213 349.14 349.838C348.79 349.463 348.558 348.994 348.472 348.488C348.385 347.983 348.448 347.463 348.654 346.993C348.859 346.524 349.197 346.124 349.626 345.844C350.055 345.563 350.557 345.415 351.07 345.416C351.789 345.443 352.468 345.753 352.958 346.28C353.449 346.806 353.71 347.505 353.686 348.224Z" fill="white"/>
<path d="M361.816 348.262C361.781 348.777 361.595 349.269 361.283 349.679C360.97 350.088 360.543 350.397 360.057 350.566C359.57 350.735 359.044 350.758 358.545 350.631C358.045 350.504 357.594 350.233 357.248 349.851C356.901 349.47 356.674 348.995 356.595 348.486C356.516 347.977 356.588 347.456 356.803 346.987C357.018 346.519 357.366 346.124 357.803 345.851C358.24 345.579 358.748 345.441 359.263 345.455C359.971 345.497 360.634 345.815 361.111 346.339C361.588 346.864 361.841 347.554 361.816 348.262Z" fill="white"/>
</g>
<path d="M350.266 164.017C351.152 163.626 351.904 162.984 352.429 162.169C352.953 161.354 353.226 160.403 353.214 159.435C353.247 158.805 353.151 158.175 352.933 157.583C352.715 156.992 352.379 156.451 351.945 155.993C351.51 155.536 350.988 155.172 350.408 154.923C349.829 154.674 349.205 154.546 348.575 154.546C347.944 154.546 347.32 154.674 346.741 154.923C346.161 155.172 345.639 155.536 345.205 155.993C344.771 156.451 344.434 156.992 344.216 157.583C343.998 158.175 343.902 158.805 343.935 159.435C343.916 160.413 344.187 161.375 344.714 162.2C345.241 163.024 346 163.674 346.896 164.068C339.749 165.14 340.068 172.9 340.068 172.9L356.966 172.976C356.966 172.976 357.362 165.076 350.266 164.017Z" fill="#1A1A1A"/>
<path opacity="0.1" d="M350.266 164.017C351.152 163.626 351.904 162.984 352.429 162.169C352.953 161.354 353.226 160.403 353.214 159.435C353.247 158.805 353.151 158.175 352.933 157.583C352.715 156.992 352.379 156.451 351.945 155.993C351.51 155.536 350.988 155.172 350.408 154.923C349.829 154.674 349.205 154.546 348.575 154.546C347.944 154.546 347.32 154.674 346.741 154.923C346.161 155.172 345.639 155.536 345.205 155.993C344.771 156.451 344.434 156.992 344.216 157.583C343.998 158.175 343.902 158.805 343.935 159.435C343.916 160.413 344.187 161.375 344.714 162.2C345.241 163.024 346 163.674 346.896 164.068C339.749 165.14 340.068 172.9 340.068 172.9L356.966 172.976C356.966 172.976 357.362 165.076 350.266 164.017Z" fill="#1A1A1A"/>
<path d="M377.725 177.981L317.497 177.708L317.465 184.906L377.692 185.179L377.725 177.981Z" fill="#1A1A1A"/>
<path opacity="0.2" d="M377.725 177.981L317.497 177.708L317.465 184.906L377.692 185.179L377.725 177.981Z" fill="white"/>
<path d="M156.308 215.285H155.708L153.973 215.413C153.033 215.469 152.099 215.593 151.178 215.783C150.581 215.867 149.988 215.982 149.404 216.128L147.425 216.676C144.058 217.709 140.881 219.283 138.019 221.335C134.237 224.08 131.079 227.594 128.753 231.647C127.386 233.984 126.298 236.472 125.511 239.063C124.685 241.878 124.209 244.784 124.095 247.716C124.019 249.256 124.044 250.799 124.171 252.336C124.171 253.115 124.388 253.893 124.49 254.684C124.576 255.482 124.726 256.272 124.937 257.046C126.085 262.167 128.413 266.949 131.737 271.011C135.061 275.073 139.288 278.302 144.081 280.44C147.55 281.937 151.269 282.772 155.045 282.903C158.945 283.118 162.849 282.558 166.531 281.257L167.655 280.836H167.808L167.935 280.912L184.029 289.081L183.557 289.489C181.834 284.154 180.175 278.985 178.567 274.02V273.829L178.707 273.688C182.611 269.756 185.51 264.94 187.156 259.649C188.648 254.812 189.083 249.711 188.433 244.691C187.854 240.23 186.42 235.922 184.208 232.005C182.302 228.64 179.842 225.619 176.933 223.071C174.533 221.053 171.877 219.362 169.033 218.042C166.881 217.114 164.64 216.408 162.345 215.936L159.793 215.515L157.942 215.375L156.819 215.298H156.436C156.563 215.284 156.692 215.284 156.819 215.298H157.955L159.805 215.375L162.358 215.745C164.682 216.182 166.953 216.863 169.135 217.774C172.028 219.079 174.732 220.766 177.176 222.79C180.138 225.327 182.65 228.348 184.604 231.724C186.878 235.683 188.357 240.049 188.956 244.576C189.66 249.674 189.255 254.863 187.769 259.79C186.112 265.191 183.168 270.109 179.192 274.122L179.269 273.791C180.877 278.755 182.549 283.924 184.285 289.246L184.527 290.025L183.8 289.655L167.706 281.499H167.986L166.838 281.921C163.084 283.241 159.108 283.814 155.134 283.605C151.277 283.458 147.481 282.593 143.941 281.053C137.189 278.161 131.571 273.135 127.949 266.745C126.282 263.794 125.065 260.611 124.337 257.301C124.138 256.507 123.989 255.701 123.89 254.889C123.788 254.085 123.622 253.293 123.584 252.502C123.239 247.961 123.719 243.394 125.001 239.024C125.807 236.398 126.925 233.879 128.332 231.52C130.714 227.43 133.937 223.893 137.789 221.143C140.699 219.086 143.929 217.525 147.349 216.523L149.352 216.013C149.942 215.876 150.539 215.769 151.139 215.694C152.071 215.521 153.013 215.419 153.96 215.387L155.708 215.324C155.907 215.297 156.108 215.284 156.308 215.285Z" fill="#1A1A1A"/>
<path d="M163.583 245.048H161.222L156.117 237.876V233.166C156.117 233.166 152.466 232.936 152.9 239.101C153.334 245.265 152.9 243.696 152.9 243.696C152.9 243.696 145.153 243.696 144.515 244.398C143.877 245.099 143.839 252.579 143.749 256.752C143.7 257.758 143.989 258.752 144.57 259.575C145.15 260.398 145.989 261.004 146.953 261.296C147.223 261.371 147.502 261.409 147.782 261.411C149.722 261.411 159.588 259.841 159.588 259.841H163.66L163.583 245.048Z" fill="#1A1A1A"/>
<path d="M170.335 243.785L168.88 259.917H164.847V244.117L170.335 243.785Z" fill="#1A1A1A"/>
<path d="M218.438 572.214V561.301L198.872 561.161L198.706 577.663L199.919 577.753C205.317 578.097 227.384 578.608 231.009 577.485C235.042 576.234 218.438 572.214 218.438 572.214Z" fill="#1A1A1A"/>
<path d="M231.468 576.464C231.468 576.642 224.142 576.795 215.119 576.795C206.096 576.795 198.77 576.642 198.77 576.464C198.77 576.285 206.096 576.132 215.119 576.132C224.142 576.132 231.468 576.285 231.468 576.464Z" fill="#1A1A1A"/>
<path d="M218.782 574.447C218.616 574.358 218.782 573.783 219.178 573.171C219.573 572.558 220.11 572.303 220.237 572.431C220.365 572.558 220.097 573.043 219.714 573.566C219.331 574.09 218.948 574.536 218.782 574.447Z" fill="#1A1A1A"/>
<path d="M220.033 575.162C219.854 575.162 219.943 574.447 220.326 573.771C220.709 573.094 221.22 572.686 221.36 572.788C221.5 572.89 221.271 573.464 220.913 574.064C220.556 574.664 220.199 575.226 220.033 575.162Z" fill="#1A1A1A"/>
<path d="M204.667 576.413C204.59 576.413 204.297 576.183 203.875 575.698C203.361 575.074 202.789 574.502 202.165 573.988C201.552 573.498 200.822 573.177 200.047 573.056C199.447 572.979 199.064 573.056 199.026 572.979C198.987 572.903 199.357 572.635 200.059 572.584C200.986 572.564 201.889 572.871 202.612 573.452C203.289 574.003 203.86 574.674 204.297 575.43C204.59 575.991 204.743 576.362 204.667 576.413Z" fill="#1A1A1A"/>
<path d="M218.846 572.392C218.935 572.545 218.603 572.928 218.042 573.132C217.48 573.337 216.983 573.26 216.957 573.132C216.931 573.005 217.327 572.737 217.812 572.558C218.297 572.379 218.744 572.239 218.846 572.392Z" fill="#1A1A1A"/>
<path d="M218.54 571.333C218.54 571.524 218.029 571.678 217.366 571.69C216.702 571.703 216.179 571.55 216.192 571.371C216.204 571.193 216.728 571.027 217.366 571.014C218.004 571.001 218.514 571.154 218.54 571.333Z" fill="#1A1A1A"/>
<path d="M266.618 572.214V561.301L247.052 561.161L246.886 577.497L248.099 577.587C253.498 577.931 275.578 578.608 279.189 577.485C283.223 576.234 266.618 572.214 266.618 572.214Z" fill="#1A1A1A"/>
<path d="M279.648 576.489C279.648 576.668 272.335 576.821 263.299 576.821C254.263 576.821 246.963 576.668 246.963 576.489C246.963 576.311 254.276 576.157 263.299 576.157C272.322 576.157 279.648 576.311 279.648 576.489Z" fill="#1A1A1A"/>
<path d="M266.962 574.447C266.809 574.358 266.962 573.783 267.358 573.171C267.754 572.558 268.29 572.303 268.417 572.431C268.545 572.558 268.277 573.043 267.894 573.566C267.511 574.09 267.128 574.536 266.962 574.447Z" fill="#1A1A1A"/>
<path d="M268.213 575.162C268.047 575.162 268.124 574.447 268.52 573.771C268.915 573.094 269.413 572.686 269.554 572.788C269.694 572.89 269.451 573.464 269.094 574.064C268.737 574.664 268.392 575.226 268.213 575.162Z" fill="#1A1A1A"/>
<path d="M252.847 576.413C252.77 576.413 252.489 576.183 252.055 575.698C251.541 575.074 250.968 574.502 250.345 573.988C249.732 573.498 249.002 573.177 248.226 573.056C247.639 572.979 247.244 573.056 247.205 572.979C247.167 572.903 247.537 572.635 248.239 572.584C249.166 572.564 250.069 572.871 250.792 573.452C251.472 574 252.044 574.671 252.476 575.43C252.77 575.991 252.923 576.362 252.847 576.413Z" fill="#1A1A1A"/>
<path d="M267.026 572.392C267.115 572.545 266.784 572.928 266.222 573.132C265.66 573.337 265.163 573.26 265.137 573.132C265.112 573.005 265.507 572.737 265.992 572.558C266.477 572.379 266.924 572.239 267.026 572.392Z" fill="#1A1A1A"/>
<path d="M266.745 571.333C266.745 571.524 266.235 571.678 265.571 571.69C264.907 571.703 264.397 571.55 264.41 571.371C264.422 571.193 264.933 571.027 265.571 571.014C266.209 571.001 266.745 571.154 266.745 571.333Z" fill="#1A1A1A"/>
<path d="M338.703 248.163C338.193 247.639 336.929 247.895 336.929 247.895C337.056 247.16 337.056 246.409 336.929 245.674C336.699 244.959 335.091 245.099 335.091 245.099C335.017 244.498 335.017 243.889 335.091 243.287C335.104 243.154 335.075 243.02 335.009 242.903C334.943 242.787 334.842 242.693 334.721 242.636C333.96 242.326 333.143 242.178 332.322 242.202C331.339 241.5 335.321 235.923 336.801 234.136C338.282 232.349 338.014 230.958 336.699 230.958C335.793 230.958 331.147 236.319 329.718 238.118C328.289 239.918 324.498 244.921 324.37 240.926C324.243 236.931 322.635 233.919 321.626 233.409C320.618 232.898 319.546 234.098 320.095 235.208C320.577 236.47 320.878 237.793 320.988 239.139C321.127 240.211 321.079 241.299 320.848 242.355C320.425 244.32 319.849 246.249 319.125 248.124H319.023C319.023 248.124 291.174 274.837 289.157 276.739C287.358 278.449 251.162 274.709 243.9 273.944C241.432 273.583 238.94 273.412 236.446 273.433C233.294 273.574 232.732 274.02 229.593 274.059C221.664 274.147 213.753 274.842 205.93 276.139C202.388 276.741 199.079 278.305 196.365 280.659C193.651 283.013 191.635 286.068 190.538 289.489C183.225 312.335 166.659 366.411 163.736 396.787C161.527 400.792 159.534 404.912 157.763 409.129C155.708 414.719 156.206 414.91 156.895 415.038C158.758 415.383 160.877 405.351 161.668 407.776C162.46 410.201 157.648 419.735 159.601 420.016C162.153 420.373 164.183 409.805 164.425 408.963C164.668 408.12 165.931 408.389 165.701 409.18C165.331 410.303 161.745 422.211 164.246 422.594C165.625 422.798 165.778 420.284 165.778 420.284C165.778 420.284 168.331 408.886 169.492 409.116C170.653 409.346 169.415 416.072 168.828 418.318C168.241 420.564 169.058 421.7 170.258 421.151C171.075 420.769 173.027 413.94 173.563 411.72C174.099 409.499 175.44 403.347 177.239 406.908C179.039 410.469 181.77 412.536 182.893 412.587C183.146 412.558 183.385 412.454 183.578 412.288C183.771 412.122 183.911 411.902 183.978 411.657C184.045 411.411 184.037 411.151 183.956 410.909C183.874 410.668 183.721 410.457 183.518 410.303C182.552 409.36 181.723 408.286 181.055 407.112C180.46 406.198 180.028 405.188 179.779 404.126C179.265 402.009 178.965 399.845 178.886 397.668L178.681 396.391C181.54 382.237 189.772 340.694 201.655 314.16L206.53 324.191L208.649 331.619L195.656 363.693L251.073 362.965L242.802 331.134L252.847 297.951C263.708 298.193 291.595 298.602 296.241 296.496C302.086 293.943 332.322 255.757 332.322 255.757C334.293 254.225 336.18 252.589 337.976 250.856C337.976 250.856 339.813 249.311 338.703 248.163Z" fill="#FFBE9D"/>
<path d="M193.218 339.992C194.826 334.504 203.084 307.37 203.084 307.37C203.084 307.37 207.142 329.488 206.07 332.155C205.084 334.439 203.919 336.641 202.586 338.741C193.218 352.997 194.443 360.132 194.443 360.132L251.047 358.409C251.175 350.496 246.491 332.092 245.521 329.156C244.551 326.221 247.78 316.61 247.78 316.61C247.78 316.61 254.161 310.114 253.931 306.77C253.81 303.766 253.439 300.778 252.821 297.836L287.281 299.112L286.196 275.756L236.701 270.804C234.978 275.667 219.395 273.28 219.395 273.28C202.573 273.842 201.527 276.93 194.533 282.367C187.539 287.804 175.963 334.466 175.963 334.466L193.218 339.992Z" fill="#1A1A1A"/>
<path d="M226.682 334.466C225.702 334.641 224.702 334.692 223.709 334.619C221.858 334.619 219.318 334.491 216.523 334.21C213.728 333.929 211.201 333.534 209.401 333.176C208.409 333.049 207.436 332.8 206.504 332.436C207.502 332.437 208.498 332.531 209.478 332.717C211.29 332.947 213.805 333.266 216.587 333.547C219.369 333.827 221.896 334.019 223.721 334.146C224.716 334.159 225.708 334.266 226.682 334.466Z" fill="#1A1A1A"/>
<path d="M230.562 329.654C229.581 330.135 228.543 330.49 227.474 330.713C222.382 332.051 217.128 332.674 211.865 332.564C210.775 332.599 209.686 332.496 208.623 332.257C209.698 332.122 210.781 332.066 211.865 332.092C213.868 332.028 216.625 331.887 219.663 331.53C222.7 331.173 225.406 330.662 227.321 330.254C228.384 329.97 229.468 329.769 230.562 329.654Z" fill="#1A1A1A"/>
<path d="M249.605 308.187C249.579 309.16 249.446 310.127 249.209 311.071C248.877 312.845 248.367 315.27 247.716 317.925C247.065 320.579 246.44 323.03 245.878 324.689C245.652 325.639 245.318 326.56 244.883 327.433C244.954 326.463 245.134 325.504 245.419 324.574C245.904 322.583 246.453 320.286 247.065 317.772C247.678 315.257 248.265 312.96 248.75 310.969C248.923 310.011 249.21 309.077 249.605 308.187Z" fill="#1A1A1A"/>
<path d="M193.818 336.737C190.865 336.281 187.951 335.603 185.101 334.708C182.188 334.027 179.33 333.131 176.55 332.028C179.501 332.491 182.414 333.169 185.267 334.057C188.18 334.736 191.039 335.632 193.818 336.737Z" fill="#1A1A1A"/>
<path d="M253.433 297.555C252.952 297.638 252.46 297.638 251.978 297.555C250.645 297.418 249.336 297.105 248.086 296.623C245.998 295.839 244.097 294.626 242.506 293.063C240.914 291.501 239.667 289.622 238.845 287.549C237.936 285.268 237.548 282.813 237.709 280.363C237.766 278.343 238.371 276.375 239.458 274.671C240.223 273.523 241.365 272.679 242.687 272.285C243.04 272.187 243.405 272.14 243.772 272.144C244.027 272.144 244.155 272.144 244.155 272.144C244.155 272.144 243.619 272.144 242.763 272.489C241.551 272.937 240.522 273.777 239.841 274.875C238.105 277.607 237.62 282.597 239.471 287.255C240.332 289.452 241.68 291.424 243.414 293.024C244.835 294.333 246.472 295.387 248.252 296.138C249.922 296.799 251.659 297.274 253.433 297.555Z" fill="#1A1A1A"/>
<path d="M283.184 298.653C282.865 294.739 282.762 290.81 282.878 286.885C282.778 282.963 282.897 279.039 283.235 275.131C283.555 279.04 283.657 282.964 283.541 286.885C283.649 290.811 283.529 294.74 283.184 298.653Z" fill="#1A1A1A"/>
<path d="M236.37 272.233C236.51 269.387 236.803 266.171 236.803 266.171C236.803 266.171 243.849 265.393 244.27 258.118C244.691 250.843 244.27 234.06 244.27 234.06L231.507 227.525L217.34 238.667L219.522 275.041L232.515 275.871C233.508 275.898 234.472 275.531 235.194 274.849C235.917 274.167 236.339 273.227 236.37 272.233Z" fill="#FFBE9D"/>
<path d="M237.633 252.362C237.633 252.362 237.633 252.502 237.519 252.668C237.424 252.788 237.301 252.884 237.161 252.946C237.021 253.008 236.867 253.035 236.714 253.025C235.898 253.025 235.106 252.081 234.826 250.983C234.692 250.451 234.692 249.894 234.826 249.362C234.852 249.13 234.936 248.908 235.069 248.716C235.203 248.525 235.382 248.369 235.591 248.265C235.763 248.194 235.956 248.194 236.127 248.265C236.255 248.328 236.358 248.431 236.421 248.558C236.51 248.775 236.421 248.916 236.421 248.903C236.421 248.89 236.421 248.775 236.293 248.648C236.227 248.556 236.128 248.493 236.018 248.469C235.907 248.445 235.792 248.464 235.693 248.52C235.537 248.615 235.407 248.747 235.315 248.906C235.224 249.064 235.174 249.243 235.17 249.426C235.063 249.901 235.063 250.394 235.17 250.868C235.425 251.864 236.115 252.668 236.727 252.744C236.847 252.761 236.969 252.752 237.085 252.719C237.202 252.686 237.31 252.63 237.404 252.553C237.557 252.451 237.608 252.349 237.633 252.362Z" fill="#EB996E"/>
<path d="M248.648 230.128C247.665 226.785 244.104 225.125 240.862 224.206C235.923 222.803 230.588 222.19 225.764 223.964C220.939 225.738 215.145 228.852 215.145 234.174C212.299 233.945 210.665 236.433 209.542 239.522C208.824 241.404 208.394 243.383 208.266 245.393C207.908 252.362 205.955 261.985 201.437 267.09C198.885 269.936 195.349 271.902 193.895 275.45C192.618 278.526 193.282 282.176 192.095 285.29C191.036 288.034 188.7 289.987 186.99 292.373C185.247 295.081 184.222 298.187 184.01 301.4C183.798 304.612 184.406 307.826 185.777 310.739C187.158 313.578 189.103 316.105 191.493 318.168C193.882 320.23 196.666 321.785 199.676 322.736C205.638 324.55 211.995 324.612 217.991 322.915C222.491 321.839 226.689 319.758 230.269 316.827C233.932 313.836 236.448 309.669 237.391 305.034C238.297 299.827 236.842 294.53 235.757 289.349C232.362 272.974 233.332 272.119 237.62 256.918C237.722 256.65 237.773 256.369 237.85 256.101C237.927 255.833 237.965 255.705 238.016 255.501C238.138 254.9 238.202 254.289 238.207 253.676C237.581 253.909 236.901 253.958 236.248 253.818C235.594 253.678 234.995 253.354 234.519 252.885C234.042 252.384 233.71 251.764 233.557 251.09C233.404 250.416 233.437 249.713 233.651 249.056C233.952 248.337 234.401 247.69 234.968 247.156C235.535 246.621 236.208 246.212 236.944 245.955C238.361 245.367 239.879 245.061 241.271 244.41C244.219 243.006 246.261 240.096 247.652 237.046C248.796 234.932 249.149 232.479 248.648 230.128Z" fill="#1A1A1A"/>
<path d="M238.144 252.706C238.413 253.105 238.636 253.533 238.807 253.982C239.19 254.787 239.701 255.922 240.262 257.237L240.364 257.48H240.096L238.82 257.594C237.94 257.594 237.199 257.76 236.331 257.748C236.256 257.731 236.186 257.695 236.128 257.643C236.07 257.592 236.026 257.527 236 257.454C235.962 257.338 235.962 257.213 236 257.097C236.029 256.925 236.067 256.754 236.114 256.586L236.344 255.68C236.46 255.075 236.639 254.485 236.88 253.919C236.856 254.535 236.767 255.147 236.612 255.744L236.434 256.65C236.37 256.956 236.255 257.428 236.434 257.39C237.072 257.39 237.978 257.25 238.82 257.199L240.096 257.084L239.931 257.365C239.382 256.088 238.922 254.889 238.654 254.059C238.419 253.635 238.247 253.18 238.144 252.706Z" fill="#1A1A1A"/>
<path d="M194.443 360.132L251.047 358.409L275.679 454.565L271.149 564.862H241.219L244.882 456.913L222.994 389.972L226.363 569.138L196.115 569.584L192.937 401.177C192.797 396.493 191.265 385.939 191.84 381.293L194.443 360.132Z" fill="#1A1A1A"/>
<path d="M230.525 391.337C229.598 391.395 228.668 391.34 227.755 391.171C226.045 390.967 223.709 390.61 221.144 390.099C218.578 389.589 216.281 389.002 214.622 388.529C213.735 388.334 212.877 388.025 212.069 387.61C212.069 387.419 216.23 388.414 221.335 389.448C226.44 390.482 230.55 391.146 230.525 391.337Z" fill="#455A64"/>
<path d="M270.843 558.813C270.843 558.991 264.065 559.144 255.706 559.144C247.346 559.144 240.556 558.991 240.556 558.813C240.556 558.634 247.333 558.481 255.706 558.481C264.078 558.481 270.843 558.621 270.843 558.813Z" fill="#455A64"/>
<path d="M226.095 564.479C226.095 564.671 219.51 564.811 211.393 564.811C203.275 564.811 196.702 564.671 196.702 564.479C196.702 564.288 203.288 564.147 211.393 564.147C219.497 564.147 226.095 564.301 226.095 564.479Z" fill="#455A64"/>
<path d="M222.19 564.02C222.011 564.02 221.22 524.876 220.416 476.594C219.612 428.311 219.139 389.142 219.305 389.142C219.471 389.142 220.288 428.273 221.079 476.581C221.871 524.889 222.381 564.02 222.19 564.02Z" fill="#455A64"/>
<path d="M266.822 558.812C266.808 558.638 266.808 558.463 266.822 558.289V556.758C266.822 555.379 266.924 553.401 267.001 550.887C267.179 545.782 267.434 538.366 267.754 529.279C268.443 511.003 269.413 485.808 270.472 457.998C270.472 457.73 270.472 457.475 270.472 457.245V457.334C263.772 430.532 257.709 406.206 253.306 388.606L248.201 367.79C247.614 365.352 247.167 363.45 246.848 362.123C246.695 361.497 246.593 361.012 246.503 360.642C246.454 360.476 246.424 360.305 246.414 360.132C246.48 360.293 246.531 360.459 246.567 360.63C246.669 360.987 246.797 361.472 246.975 362.085C247.32 363.361 247.818 365.301 248.456 367.726C249.732 372.652 251.532 379.748 253.778 388.491C258.22 406.078 264.346 430.341 271.136 457.181V457.271C271.136 457.5 271.136 457.768 271.136 458.024C270 485.834 268.966 511.015 268.213 529.292C267.817 538.392 267.486 545.756 267.256 550.887C267.128 553.439 267.026 555.379 266.962 556.758C266.962 557.409 266.886 557.919 266.873 558.289C266.875 558.465 266.858 558.64 266.822 558.812Z" fill="#455A64"/>
<path d="M257.058 454.999C254.909 455.706 252.694 456.197 250.447 456.467C247.69 456.939 245.342 457.271 244.283 457.322V457.066C244.627 457.168 244.806 457.232 244.806 457.283C244.806 457.334 244.589 457.283 244.231 457.283H243.466L244.231 457.054C245.227 456.76 247.575 456.275 250.332 455.777C252.543 455.298 254.796 455.037 257.058 454.999Z" fill="#455A64"/>
<path d="M256.535 458.662C254.544 458.753 252.549 458.663 250.575 458.394C248.581 458.353 246.595 458.135 244.64 457.743C248.628 457.417 252.643 457.727 256.535 458.662Z" fill="#455A64"/>
<path opacity="0.2" d="M194.201 362.161C194.871 363.022 195.716 363.732 196.679 364.244C197.642 364.757 198.702 365.06 199.791 365.135C202.071 365.405 204.377 365.362 206.645 365.007C221.258 363.386 236.74 361.893 251.047 358.409C232.528 359.443 212.962 359.098 194.443 360.132L194.252 361.714" fill="#1A1A1A"/>
<g opacity="0.2">
<path d="M213.281 388.261L223.721 428.771L222.994 389.972L213.281 388.261Z" fill="#1A1A1A"/>
</g>
</svg>
